<svg width="25" height="25" viewBox="0 0 25 25" fill="none" xmlns="http://www.w3.org/2000/svg">
<path d="M12.5 22.6562C18.1 22.6562 22.6562 18.1 22.6562 12.5C22.6563 6.9 18.1 2.34375 12.5 2.34375C6.9 2.34375 2.34375 6.9 2.34375 12.5C2.34375 18.1 6.9 22.6562 12.5 22.6562ZM12.5 21.0938C7.74453 21.0938 3.90625 17.2555 3.90625 12.5C3.90625 7.74453 7.74453 3.90625 12.5 3.90625C17.2555 3.90625 21.0938 7.74453 21.0938 12.5C21.0938 17.2555 17.2555 21.0938 12.5 21.0938ZM13.2812 17.9688L13.2813 9.9375L16.4062 13.0625L17.5047 11.9375L13.0617 7.49531L12.4992 6.93281L11.9367 7.49531L7.49453 11.9383L8.59375 13.0625L11.7188 9.9375L11.7188 17.9688H13.2812Z" fill="black"/>
</svg>
