<svg width="20" height="20" viewBox="0 0 20 20" fill="none" xmlns="http://www.w3.org/2000/svg">
<path d="M8.33337 13.3334H11.6667M7.33337 18.3334H12.6667C14.0668 18.3334 14.7669 18.3334 15.3017 18.0609C15.7721 17.8212 16.1545 17.4388 16.3942 16.9684C16.6667 16.4336 16.6667 15.7335 16.6667 14.3334V5.66675C16.6667 4.26662 16.6667 3.56655 16.3942 3.03177C16.1545 2.56137 15.7721 2.17892 15.3017 1.93923C14.7669 1.66675 14.0668 1.66675 12.6667 1.66675H7.33337C5.93324 1.66675 5.23318 1.66675 4.6984 1.93923C4.22799 2.17892 3.84554 2.56137 3.60586 3.03177C3.33337 3.56655 3.33337 4.26662 3.33337 5.66675V14.3334C3.33337 15.7335 3.33337 16.4336 3.60586 16.9684C3.84554 17.4388 4.22799 17.8212 4.6984 18.0609C5.23318 18.3334 5.93324 18.3334 7.33337 18.3334ZM12.5 7.50008C12.5 8.88079 11.3808 10.0001 10 10.0001C8.61933 10.0001 7.50004 8.88079 7.50004 7.50008C7.50004 6.11937 8.61933 5.00008 10 5.00008C11.3808 5.00008 12.5 6.11937 12.5 7.50008Z" stroke="#475467" stroke-width="1.67" stroke-linecap="round" stroke-linejoin="round"/>
</svg>
