<svg width="25" height="25" viewBox="0 0 25 25" fill="none" xmlns="http://www.w3.org/2000/svg">
<path d="M6.53613 7.979H12.5361V11.979H6.53613V7.979Z" stroke="#CF4B5F" stroke-width="1.5" stroke-linecap="round" stroke-linejoin="round"/>
<path d="M7.53613 15.979H11.5361" stroke="#CF4B5F" stroke-width="1.5" stroke-linecap="round" stroke-linejoin="round"/>
<path d="M3.53613 21.979V5.979C3.53613 5.44857 3.74685 4.93986 4.12192 4.56479C4.49699 4.18972 5.0057 3.979 5.53613 3.979H13.5361C14.0666 3.979 14.5753 4.18972 14.9503 4.56479C15.3254 4.93986 15.5361 5.44857 15.5361 5.979V21.979" stroke="#383B56" stroke-width="1.5" stroke-linecap="round" stroke-linejoin="round"/>
<path d="M19.5361 5.979L20.9501 7.393C21.3252 7.76799 21.536 8.27661 21.5361 8.807V18.479C21.5361 18.8768 21.3781 19.2584 21.0968 19.5397C20.8155 19.821 20.434 19.979 20.0361 19.979C19.6383 19.979 19.2568 19.821 18.9755 19.5397C18.6942 19.2584 18.5361 18.8768 18.5361 18.479V16.979C18.5361 16.7138 18.4308 16.4594 18.2432 16.2719C18.0557 16.0844 17.8013 15.979 17.5361 15.979H15.5361" stroke="#CF4B5F" stroke-width="1.5" stroke-linecap="round" stroke-linejoin="round"/>
<path d="M21.5362 12.979H19.6692C19.5274 12.979 19.3872 12.9488 19.258 12.8905C19.1288 12.8321 19.0135 12.747 18.9197 12.6407C18.8259 12.5344 18.7557 12.4094 18.7139 12.2739C18.6721 12.1385 18.6596 11.9957 18.6772 11.855L18.9272 9.855C18.9574 9.61319 19.0748 9.39074 19.2575 9.22943C19.4402 9.06813 19.6755 8.97907 19.9192 8.979H21.5362" stroke="#CF4B5F" stroke-width="1.5" stroke-linecap="round" stroke-linejoin="round"/>
<path d="M2.53613 21.979H16.5361" stroke="#383B56" stroke-width="1.5" stroke-linecap="round" stroke-linejoin="round"/>
</svg>
