<svg width="20" height="20" viewBox="0 0 20 20" fill="none" xmlns="http://www.w3.org/2000/svg">
<path d="M4.16675 10.8333H6.66675M1.66675 7.49992L3.33341 8.33325L4.39228 5.15664C4.61085 4.50096 4.72013 4.17312 4.92282 3.93074C5.10181 3.7167 5.33168 3.55102 5.59134 3.4489C5.88538 3.33325 6.23096 3.33325 6.92211 3.33325H13.0781C13.7692 3.33325 14.1148 3.33325 14.4088 3.4489C14.6685 3.55102 14.8983 3.7167 15.0773 3.93074C15.28 4.17312 15.3893 4.50096 15.6079 5.15664L16.6667 8.33325L18.3334 7.49992M13.3334 10.8333H15.8334M5.66675 8.33325H14.3334C15.7335 8.33325 16.4336 8.33325 16.9684 8.60574C17.4388 8.84542 17.8212 9.22787 18.0609 9.69828C18.3334 10.2331 18.3334 10.9331 18.3334 12.3333V14.5833C18.3334 14.9705 18.3334 15.1641 18.3014 15.3251C18.1699 15.9862 17.653 16.503 16.9919 16.6346C16.8309 16.6666 16.6373 16.6666 16.2501 16.6666H15.8334C14.9129 16.6666 14.1667 15.9204 14.1667 14.9999C14.1667 14.7698 13.9802 14.5833 13.7501 14.5833H6.25008C6.01996 14.5833 5.83341 14.7698 5.83341 14.9999C5.83341 15.9204 5.08722 16.6666 4.16675 16.6666H3.75008C3.36287 16.6666 3.16926 16.6666 3.00826 16.6346C2.34711 16.503 1.83028 15.9862 1.69877 15.3251C1.66675 15.1641 1.66675 14.9705 1.66675 14.5833V12.3333C1.66675 10.9331 1.66675 10.2331 1.93923 9.69828C2.17892 9.22787 2.56137 8.84542 3.03177 8.60574C3.56655 8.33325 4.26662 8.33325 5.66675 8.33325Z" stroke="black" stroke-width="1.8" stroke-linecap="round" stroke-linejoin="round"/>
</svg>
