<svg width="18" height="18" viewBox="0 0 18 18" fill="none" xmlns="http://www.w3.org/2000/svg">
<path d="M5 2C5.55228 2 6 2.44772 6 3V5C6 5.55228 5.55228 6 5 6H3C2.44772 6 2 5.55228 2 5V3C2 2.44772 2.44772 2 3 2H5ZM8 1C8 0.447715 7.55228 0 7 0H1C0.447715 0 0 0.447715 0 1V7C0 7.55228 0.447715 8 1 8H7C7.55228 8 8 7.55228 8 7V1Z" fill="white"/>
<path d="M15 2C15.5523 2 16 2.44772 16 3V5C16 5.55228 15.5523 6 15 6H13C12.4477 6 12 5.55228 12 5V3C12 2.44772 12.4477 2 13 2H15ZM18 1C18 0.447715 17.5523 0 17 0H11C10.4477 0 10 0.447715 10 1V7C10 7.55228 10.4477 8 11 8H17C17.5523 8 18 7.55228 18 7V1Z" fill="white"/>
<path d="M5 12C5.55228 12 6 12.4477 6 13V15C6 15.5523 5.55228 16 5 16H3C2.44772 16 2 15.5523 2 15V13C2 12.4477 2.44772 12 3 12H5ZM8 11C8 10.4477 7.55228 10 7 10H1C0.447715 10 0 10.4477 0 11V17C0 17.5523 0.447715 18 1 18H7C7.55228 18 8 17.5523 8 17V11Z" fill="white"/>
<path d="M15 12C15.5523 12 16 12.4477 16 13V15C16 15.5523 15.5523 16 15 16H13C12.4477 16 12 15.5523 12 15V13C12 12.4477 12.4477 12 13 12H15ZM18 11C18 10.4477 17.5523 10 17 10H11C10.4477 10 10 10.4477 10 11V17C10 17.5523 10.4477 18 11 18H17C17.5523 18 18 17.5523 18 17V11Z" fill="white"/>
</svg>
