<svg width="22" height="23" viewBox="0 0 22 23" fill="none" xmlns="http://www.w3.org/2000/svg">
<path d="M16.2186 14.2728C16.2186 13.9213 15.9134 13.6365 15.5368 13.6365C15.1601 13.6365 14.855 13.9213 14.855 14.2728V16.8183C14.855 17.1698 15.1601 17.4547 15.5368 17.4547C15.9134 17.4547 16.2186 17.1698 16.2186 16.8183V14.2728Z" fill="#201D1E"/>
<path d="M15.5368 20.0001C16.0388 20.0001 16.4459 19.6202 16.4459 19.1516C16.4459 18.6831 16.0388 18.3031 15.5368 18.3031C15.0347 18.3031 14.6277 18.6831 14.6277 19.1516C14.6277 19.6202 15.0347 20.0001 15.5368 20.0001Z" fill="#201D1E"/>
<path d="M16.2186 14.2728C16.2186 13.9213 15.9134 13.6365 15.5368 13.6365C15.1601 13.6365 14.855 13.9213 14.855 14.2728V16.8183C14.855 17.1698 15.1601 17.4547 15.5368 17.4547C15.9134 17.4547 16.2186 17.1698 16.2186 16.8183V14.2728Z" stroke="#201D1E" stroke-width="0.3"/>
<path d="M15.5368 20.0001C16.0388 20.0001 16.4459 19.6202 16.4459 19.1516C16.4459 18.6831 16.0388 18.3031 15.5368 18.3031C15.0347 18.3031 14.6277 18.6831 14.6277 19.1516C14.6277 19.6202 15.0347 20.0001 15.5368 20.0001Z" stroke="#201D1E" stroke-width="0.3"/>
<path d="M20.821 19.4847C20.9439 19.7306 21.0019 20.0038 20.9895 20.2784C20.9771 20.5529 20.8947 20.8198 20.7501 21.0536C20.6056 21.2874 20.4037 21.4804 20.1636 21.6142C19.9235 21.748 19.6532 21.8183 19.3783 21.8183H11.6948C11.42 21.8183 11.1496 21.748 10.9095 21.6142C10.6695 21.4804 10.4676 21.2874 10.323 21.0536C10.1785 20.8198 10.0961 20.5529 10.0837 20.2784C10.0713 20.0038 10.1293 19.7306 10.2521 19.4847L14.0939 11.8012C14.2278 11.5332 14.4337 11.3077 14.6885 11.1502C14.9433 10.9926 15.237 10.9092 15.5366 10.9092C15.8362 10.9092 16.1298 10.9926 16.3847 11.1502C16.6395 11.3077 16.8454 11.5332 16.9793 11.8012L20.821 19.4847Z" stroke="#201D1E" stroke-width="1.8" stroke-linecap="round" stroke-linejoin="round"/>
<path d="M9.85485 9.77282H8.49121V8.40918" stroke="#201D1E" stroke-width="1.8" stroke-linecap="round" stroke-linejoin="round"/>
<path d="M2.55455 2.47252C2.68241 2.34465 2.85584 2.27282 3.03667 2.27282H12.699C12.8797 2.27304 13.0529 2.34497 13.1806 2.47282L15.7917 5.08296C15.8549 5.14629 15.9052 5.22153 15.9394 5.30425C15.9737 5.387 15.9913 5.47568 15.9912 5.56523V7.72736C15.9912 8.10392 16.2965 8.40918 16.673 8.40918C17.0496 8.40918 17.3548 8.10392 17.3548 7.72736V5.56585C17.3549 5.2973 17.3021 5.03105 17.1994 4.7829C17.0967 4.53465 16.9461 4.30907 16.7562 4.11903L14.1454 1.50918C13.7622 1.12547 13.2423 0.909657 12.7 0.90918H3.03667C2.49418 0.90918 1.97391 1.12468 1.59031 1.50828C1.20671 1.89188 0.991211 2.41215 0.991211 2.95463V17.0455C0.991211 17.588 1.20671 18.1083 1.59031 18.4919C1.97391 18.8755 2.49418 19.091 3.03667 19.091H7.80939C8.18595 19.091 8.49121 18.7857 8.49121 18.4092C8.49121 18.0326 8.18595 17.7274 7.80939 17.7274H3.03667C2.85584 17.7274 2.68241 17.6555 2.55455 17.5277C2.42668 17.3998 2.35485 17.2264 2.35485 17.0455V2.95463C2.35485 2.77381 2.42668 2.60038 2.55455 2.47252Z" fill="#201D1E"/>
<path d="M7.14606 6.64024C7.72106 6.39337 8.35291 6.30952 8.9724 6.39789C9.59189 6.48626 10.1751 6.74342 10.6581 7.14121C11.1412 7.53901 11.5054 8.06208 11.711 8.65312C11.8346 9.00879 12.2232 9.19685 12.5789 9.07318C12.9346 8.9495 13.1226 8.56091 12.9989 8.20524C12.7112 7.37778 12.2013 6.64548 11.525 6.08857C10.8487 5.53166 10.0322 5.17163 9.16497 5.04792C8.29769 4.92421 7.41308 5.04159 6.60808 5.38721C5.80308 5.73283 5.10873 6.29334 4.60112 7.00735C4.0935 7.72136 3.7922 8.56131 3.73022 9.43517C3.66825 10.309 3.84798 11.1831 4.24975 11.9616C4.65151 12.7401 5.2598 13.393 6.00796 13.8488C6.75613 14.3046 7.61531 14.5456 8.49137 14.5455C8.86793 14.5455 9.17316 14.2402 9.17313 13.8637C9.1731 13.4871 8.86782 13.1819 8.49126 13.1819C7.8655 13.182 7.2518 13.0098 6.7174 12.6842C6.183 12.3587 5.74851 11.8923 5.46153 11.3362C5.17456 10.7802 5.04617 10.1558 5.09044 9.53164C5.13471 8.90745 5.34993 8.30749 5.71251 7.79748C6.07509 7.28748 6.57105 6.88711 7.14606 6.64024Z" fill="#201D1E"/>
<path d="M2.55455 2.47252C2.68241 2.34465 2.85584 2.27282 3.03667 2.27282H12.699C12.8797 2.27304 13.0529 2.34497 13.1806 2.47282L15.7917 5.08296C15.8549 5.14629 15.9052 5.22153 15.9394 5.30425C15.9737 5.387 15.9913 5.47568 15.9912 5.56523V7.72736C15.9912 8.10392 16.2965 8.40918 16.673 8.40918C17.0496 8.40918 17.3548 8.10392 17.3548 7.72736V5.56585C17.3549 5.2973 17.3021 5.03105 17.1994 4.7829C17.0967 4.53465 16.9461 4.30907 16.7562 4.11903L14.1454 1.50918C13.7622 1.12547 13.2423 0.909657 12.7 0.90918H3.03667C2.49418 0.90918 1.97391 1.12468 1.59031 1.50828C1.20671 1.89188 0.991211 2.41215 0.991211 2.95463V17.0455C0.991211 17.588 1.20671 18.1083 1.59031 18.4919C1.97391 18.8755 2.49418 19.091 3.03667 19.091H7.80939C8.18595 19.091 8.49121 18.7857 8.49121 18.4092C8.49121 18.0326 8.18595 17.7274 7.80939 17.7274H3.03667C2.85584 17.7274 2.68241 17.6555 2.55455 17.5277C2.42668 17.3998 2.35485 17.2264 2.35485 17.0455V2.95463C2.35485 2.77381 2.42668 2.60038 2.55455 2.47252Z" stroke="#201D1E" stroke-width="0.5" stroke-linecap="round" stroke-linejoin="round"/>
<path d="M7.14606 6.64024C7.72106 6.39337 8.35291 6.30952 8.9724 6.39789C9.59189 6.48626 10.1751 6.74342 10.6581 7.14121C11.1412 7.53901 11.5054 8.06208 11.711 8.65312C11.8346 9.00879 12.2232 9.19685 12.5789 9.07318C12.9346 8.9495 13.1226 8.56091 12.9989 8.20524C12.7112 7.37778 12.2013 6.64548 11.525 6.08857C10.8487 5.53166 10.0322 5.17163 9.16497 5.04792C8.29769 4.92421 7.41308 5.04159 6.60808 5.38721C5.80308 5.73283 5.10873 6.29334 4.60112 7.00735C4.0935 7.72136 3.7922 8.56131 3.73022 9.43517C3.66825 10.309 3.84798 11.1831 4.24975 11.9616C4.65151 12.7401 5.2598 13.393 6.00796 13.8488C6.75613 14.3046 7.61531 14.5456 8.49137 14.5455C8.86793 14.5455 9.17316 14.2402 9.17313 13.8637C9.1731 13.4871 8.86782 13.1819 8.49126 13.1819C7.8655 13.182 7.2518 13.0098 6.7174 12.6842C6.183 12.3587 5.74851 11.8923 5.46153 11.3362C5.17456 10.7802 5.04617 10.1558 5.09044 9.53164C5.13471 8.90745 5.34993 8.30749 5.71251 7.79748C6.07509 7.28748 6.57105 6.88711 7.14606 6.64024Z" stroke="#201D1E" stroke-width="0.5" stroke-linecap="round" stroke-linejoin="round"/>
</svg>
