<svg width="25" height="25" viewBox="0 0 25 25" fill="none" xmlns="http://www.w3.org/2000/svg">
<path d="M6.90632 22.3869L2.62832 18.1089C2.44074 17.9214 2.29193 17.6988 2.1904 17.4538C2.08888 17.2087 2.03662 16.9461 2.03662 16.6809C2.03662 16.4157 2.08888 16.1531 2.1904 15.908C2.29193 15.663 2.44074 15.4404 2.62832 15.2529L13.3263 4.5549C13.8945 3.98699 14.665 3.66797 15.4683 3.66797C16.2717 3.66797 17.0421 3.98699 17.6103 4.5549L20.4603 7.4049C21.0282 7.97309 21.3473 8.74356 21.3473 9.5469C21.3473 10.3502 21.0282 11.1207 20.4603 11.6889L9.76232 22.3869C9.38353 22.7655 8.86989 22.9782 8.33432 22.9782C7.79876 22.9782 7.28512 22.7655 6.90632 22.3869V22.3869Z" stroke="#383B56" stroke-width="1.5" stroke-linecap="round" stroke-linejoin="round"/>
<path d="M16.1823 15.9669L16.5853 14.0199C16.6871 13.5285 16.6651 13.0196 16.5212 12.5388C16.3774 12.0581 16.1163 11.6207 15.7613 11.2659L13.7483 9.25292C13.3935 8.89814 12.9561 8.63711 12.4754 8.49328C11.9946 8.34945 11.4857 8.32733 10.9943 8.42892L9.04834 8.83292" stroke="#383B56" stroke-width="1.5" stroke-linecap="round" stroke-linejoin="round"/>
<path d="M9.04646 8.82894L7.62646 7.40894" stroke="#CF4B5F" stroke-width="1.5" stroke-linecap="round" stroke-linejoin="round"/>
<path d="M4.76611 13.1189L11.8961 20.2489" stroke="#CF4B5F" stroke-width="1.5" stroke-linecap="round" stroke-linejoin="round"/>
<path d="M9.76611 2.979V3.839" stroke="#CF4B5F" stroke-width="1.5" stroke-linecap="round" stroke-linejoin="round"/>
<path d="M3.19629 9.54907H4.05629" stroke="#CF4B5F" stroke-width="1.5" stroke-linecap="round" stroke-linejoin="round"/>
<path d="M4.76611 4.54907L5.48611 5.26907" stroke="#CF4B5F" stroke-width="1.5" stroke-linecap="round" stroke-linejoin="round"/>
<path d="M15.4663 21.819V20.959" stroke="#CF4B5F" stroke-width="1.5" stroke-linecap="round" stroke-linejoin="round"/>
<path d="M22.0363 15.249H21.1763" stroke="#CF4B5F" stroke-width="1.5" stroke-linecap="round" stroke-linejoin="round"/>
<path d="M20.4661 20.2491L19.7461 19.5391" stroke="#CF4B5F" stroke-width="1.5" stroke-linecap="round" stroke-linejoin="round"/>
<path d="M17.6065 17.399L16.1865 15.969" stroke="#CF4B5F" stroke-width="1.5" stroke-linecap="round" stroke-linejoin="round"/>
</svg>
