<svg width="25" height="25" viewBox="0 0 25 25" fill="none" xmlns="http://www.w3.org/2000/svg">
<path d="M12.0361 19.481C15.626 19.481 18.5361 16.5708 18.5361 12.981C18.5361 9.39111 15.626 6.48096 12.0361 6.48096C8.44628 6.48096 5.53613 9.39111 5.53613 12.981C5.53613 16.5708 8.44628 19.481 12.0361 19.481Z" stroke="#383B56" stroke-width="1.5" stroke-linecap="round" stroke-linejoin="round"/>
<path d="M11.999 12.9162V9.99951M11.999 15.8328H12.0074" stroke="#383B56" stroke-width="1.5" stroke-linecap="round" stroke-linejoin="round"/>
<path d="M4.89906 5.979C3.06537 7.84755 2.03809 10.361 2.03809 12.979C2.03809 15.597 3.06537 18.1105 4.89906 19.979" stroke="#CF4B5F" stroke-width="1.5" stroke-linecap="round" stroke-linejoin="round"/>
<path d="M19.1729 5.979C21.0065 7.84755 22.0338 10.361 22.0338 12.979C22.0338 15.597 21.0065 18.1105 19.1729 19.979" stroke="#CF4B5F" stroke-width="1.5" stroke-linecap="round" stroke-linejoin="round"/>
</svg>
